<svg width="23" height="23" viewBox="0 0 23 23" xmlns="http://www.w3.org/2000/svg">
<g clip-path="url(#clip0_700_5853)">
<path d="M16.4684 0.667969H6.53171C3.29771 0.667969 0.666748 3.29893 0.666748 6.53293V16.4698C0.666748 19.7036 3.29771 22.3346 6.53171 22.3346H16.4686C19.7024 22.3346 22.3334 19.7036 22.3334 16.4698V6.53293C22.3334 3.29893 19.7024 0.667969 16.4684 0.667969ZM11.5001 17.4256C8.23334 17.4256 5.57576 14.768 5.57576 11.5013C5.57576 8.23456 8.23334 5.57698 11.5001 5.57698C14.7668 5.57698 17.4244 8.23456 17.4244 11.5013C17.4244 14.768 14.7668 17.4256 11.5001 17.4256ZM17.566 6.97412C16.6007 6.97412 15.8155 6.18893 15.8155 5.22356C15.8155 4.25819 16.6007 3.47283 17.566 3.47283C18.5314 3.47283 19.3168 4.25819 19.3168 5.22356C19.3168 6.18893 18.5314 6.97412 17.566 6.97412Z"/>
<path d="M11.5001 6.84766C8.93389 6.84766 6.84595 8.93544 6.84595 11.5018C6.84595 14.0679 8.93389 16.1559 11.5001 16.1559C14.0664 16.1559 16.1542 14.0679 16.1542 11.5018C16.1542 8.93544 14.0664 6.84766 11.5001 6.84766Z"/>
<path d="M17.5661 4.74219C17.3012 4.74219 17.0857 4.95774 17.0857 5.22256C17.0857 5.48737 17.3012 5.70293 17.5661 5.70293C17.831 5.70293 18.0466 5.48754 18.0466 5.22256C18.0466 4.95758 17.831 4.74219 17.5661 4.74219Z"/>
</g>
<defs>
<clipPath id="clip0_700_5853">
<rect width="21.6667" height="21.6667" transform="translate(0.666748 0.667969)"/>
</clipPath>
</defs>
</svg>
