<svg width="25" height="25" viewBox="0 0 25 25" fill="none" xmlns="http://www.w3.org/2000/svg">
<path fill-rule="evenodd" clip-rule="evenodd" d="M18.003 0C21.8675 0 25 3.135 25 6.997V18.003C25 21.8675 21.865 25 18.003 25H6.997C3.1325 25 0 21.865 0 18.003V6.997C0 3.1325 3.135 0 6.997 0H18.003ZM12.5 6C8.91 6 6 8.91 6 12.5C6 16.09 8.91 19 12.5 19C16.09 19 19 16.09 19 12.5C19 8.91 16.09 6 12.5 6ZM12.5 8C13.0909 8 13.6761 8.1164 14.2221 8.34254C14.768 8.56869 15.2641 8.90016 15.682 9.31802C16.0998 9.73588 16.4313 10.232 16.6575 10.7779C16.8836 11.3239 17 11.9091 17 12.5C17 13.0909 16.8836 13.6761 16.6575 14.2221C16.4313 14.768 16.0998 15.2641 15.682 15.682C15.2641 16.0998 14.768 16.4313 14.2221 16.6575C13.6761 16.8836 13.0909 17 12.5 17C11.3065 17 10.1619 16.5259 9.31802 15.682C8.47411 14.8381 8 13.6935 8 12.5C8 11.3065 8.47411 10.1619 9.31802 9.31802C10.1619 8.47411 11.3065 8 12.5 8ZM19.75 3.5C19.2859 3.5 18.8408 3.68437 18.5126 4.01256C18.1844 4.34075 18 4.78587 18 5.25C18 5.71413 18.1844 6.15925 18.5126 6.48744C18.8408 6.81563 19.2859 7 19.75 7C20.2141 7 20.6592 6.81563 20.9874 6.48744C21.3156 6.15925 21.5 5.71413 21.5 5.25C21.5 4.78587 21.3156 4.34075 20.9874 4.01256C20.6592 3.68437 20.2141 3.5 19.75 3.5Z""/>
</svg>
