<svg width="30" height="22" viewBox="0 0 30 22" fill="none" xmlns="http://www.w3.org/2000/svg">
<path d="M6.35891 22C4.69441 22 3.21196 21.3856 1.91157 20.1569C0.637191 18.9281 0 17.1242 0 14.7451C0 12.6797 0.403121 10.719 1.20936 8.86274C2.0156 7.00653 3.08192 5.32026 4.40832 3.80392C5.76073 2.28758 7.23017 1.01961 8.81664 0L12.2887 2.35294C11.8205 2.77124 11.2484 3.39869 10.5722 4.23529C9.89597 5.07189 9.25878 6.01307 8.6606 7.05882C8.08843 8.10457 7.71131 9.13725 7.52926 10.1569C8.90767 10.4706 10.052 11.1242 10.9623 12.1176C11.8726 13.085 12.3277 14.3399 12.3277 15.8824C12.3277 17.7386 11.7295 19.2288 10.5332 20.3529C9.3368 21.451 7.94538 22 6.35891 22ZM23.9922 22C22.3017 22 20.8192 21.3856 19.5449 20.1569C18.2965 18.9281 17.6723 17.1242 17.6723 14.7451C17.6723 12.7059 18.0754 10.7582 18.8817 8.90196C19.6879 7.01961 20.7542 5.32026 22.0806 3.80392C23.433 2.28758 24.8895 1.01961 26.4499 0L29.883 2.35294C29.4148 2.77124 28.8427 3.39869 28.1664 4.23529C27.5163 5.07189 26.9051 6.01307 26.3329 7.05882C25.7607 8.07843 25.3836 9.11111 25.2016 10.1569C26.554 10.4706 27.6853 11.1242 28.5956 12.1176C29.5319 13.085 30 14.3399 30 15.8824C30 17.7386 29.3888 19.2288 28.1664 20.3529C26.9441 21.451 25.5527 22 23.9922 22Z" fill="white"/>
</svg>
