<svg width="23" height="17" viewBox="0 0 23 17" xmlns="http://www.w3.org/2000/svg">
<path d="M21.4887 2.22301C20.7066 1.2933 19.2626 0.914062 16.5049 0.914062H6.49456C3.67377 0.914062 2.20533 1.31776 1.42617 2.30758C0.666504 3.27265 0.666504 4.69462 0.666504 6.66265V10.4137C0.666504 14.2264 1.56784 16.1622 6.49456 16.1622H16.505C18.8964 16.1622 20.2216 15.8276 21.0789 15.0071C21.9581 14.1657 22.3332 12.792 22.3332 10.4137V6.66265C22.3332 4.58719 22.2744 3.15684 21.4887 2.22301ZM14.5766 9.05605L10.0309 11.4318C9.92928 11.4849 9.81815 11.5112 9.70716 11.5112C9.5815 11.5112 9.45611 11.4774 9.34505 11.4102C9.13593 11.2834 9.00824 11.0568 9.00824 10.8123V6.07611C9.00824 5.83205 9.13558 5.60559 9.34428 5.47881C9.55305 5.35202 9.8127 5.34336 10.0293 5.45589L14.575 7.81629C14.8062 7.93637 14.9515 8.17512 14.9518 8.43561C14.9521 8.69631 14.8075 8.93541 14.5766 9.05605Z"/>
</svg>
