<svg width="25" height="18" viewBox="0 0 25 18" fill="none" xmlns="http://www.w3.org/2000/svg">
<path d="M24.0256 1.50225C23.1231 0.435242 21.457 0 18.2751 0H6.72468C3.46992 0 1.77556 0.463317 0.876532 1.59931C0 2.70691 0 4.33886 0 6.59753V10.9025C0 15.2783 1.04 17.5 6.72468 17.5H18.2752C21.0345 17.5 22.5635 17.1159 23.5527 16.1743C24.5672 15.2087 25 13.6321 25 10.9025V6.59753C25 4.21557 24.9322 2.57399 24.0256 1.50225ZM16.0501 9.34439L10.8051 12.0709C10.6878 12.1319 10.5596 12.1621 10.4315 12.1621C10.2865 12.1621 10.1419 12.1233 10.0137 12.0462C9.77242 11.9007 9.62508 11.6406 9.62508 11.36V5.92438C9.62508 5.64427 9.77202 5.38437 10.0128 5.23887C10.2537 5.09336 10.5533 5.08341 10.8032 5.21256L16.0482 7.92155C16.3151 8.05936 16.4827 8.33337 16.4831 8.63233C16.4834 8.93152 16.3165 9.20594 16.0501 9.34439Z"/>
</svg>
